<svg width="782" height="783" viewBox="0 0 782 783" fill="none" xmlns="http://www.w3.org/2000/svg">
<circle cx="391" cy="391" r="391" fill="url(#paint0_linear_17_6)"/>
<path d="M535.67 297.761L521.182 347.193H245.045L259.534 297.761H535.67ZM406.125 631L250.159 440.091L249.307 404.295H326.864C347.034 404.295 364.222 401.455 378.426 395.773C392.631 389.949 403.497 381.284 411.026 369.778C418.554 358.131 422.318 343.5 422.318 325.886C422.318 299.892 414.506 279.509 398.881 264.736C383.256 249.821 359.25 242.364 326.864 242.364H245.045L259.534 194.636H326.864C361.523 194.636 389.932 200.389 412.091 211.895C434.392 223.259 450.869 238.884 461.523 258.77C472.318 278.514 477.716 300.886 477.716 325.886C477.716 348.472 472.744 369.281 462.801 388.315C453 407.207 437.233 422.406 415.5 433.912C393.909 445.418 365.358 451.17 329.847 451.17H328.568L472.602 627.591V631H406.125ZM535.67 194.636L521.182 244.068L303.852 242.364L318.341 194.636H535.67Z" fill="white"/>
<path d="M280.5 614.207C178.79 685.312 121.397 673.653 18 509.207C110.5 814.707 581.5 927.707 763.5 507.707C552.399 453.373 449.311 473.957 280.5 614.207Z" fill="#E8C300"/>
<defs>
<linearGradient id="paint0_linear_17_6" x1="391" y1="0" x2="391" y2="782" gradientUnits="userSpaceOnUse">
<stop stop-color="#FFBC11"/>
<stop offset="1" stop-color="#765500"/>
</linearGradient>
</defs>
</svg>
