<svg width="2279" height="783" viewBox="0 0 2279 783" fill="none" xmlns="http://www.w3.org/2000/svg">
<path d="M1220.5 238.5V294.5H1170.5V574H1100.5V506C1081.5 528.333 1052.17 539.5 1012.5 539.5C981.5 539.5 955.5 532 934.5 517C913.833 502 903.5 481.5 903.5 455.5C903.5 435.833 910.333 420.5 924 409.5C938 398.167 957.333 391.667 982 390C959.333 389.333 941.667 384.5 929 375.5C916.667 366.167 910.5 353.167 910.5 336.5C910.5 316.833 917.833 302.833 932.5 294.5H869V238.5H1031.5V294.5H1030C997.667 294.5 981.5 306.333 981.5 330C981.5 350.333 996.333 360.5 1026 360.5H1046V419.5H1022C990.333 419.5 974.5 429.167 974.5 448.5C974.5 459.167 978.667 467.333 987 473C995.667 478.333 1006.83 481 1020.5 481C1044.83 481 1064.17 475 1078.5 463C1093.17 451 1100.5 432.667 1100.5 408V238.5H1220.5ZM1190.29 238.5H1484.79V294.5H1434.79V574H1363.79V416H1301.29C1295.29 416 1290.96 417.5 1288.29 420.5C1285.62 423.5 1284.29 429.5 1284.29 438.5C1284.29 448.167 1285.62 459.667 1288.29 473H1232.29C1220.96 454 1215.29 432.333 1215.29 408C1215.29 393 1219.96 381.333 1229.29 373C1238.62 364.333 1252.29 360 1270.29 360H1363.79V294.5H1190.29V238.5ZM1487.44 446V391H1525.44C1556.1 391 1571.44 378.333 1571.44 353V294.5H1454.94V238.5H1693.44V294.5H1641.44V357C1641.44 379.333 1635.77 398.167 1624.44 413.5C1613.44 428.5 1597.44 438 1576.44 442C1573.77 442.667 1571.27 443 1568.94 443L1671.44 574H1586.44L1487.44 446ZM1783.43 238.5H1833.93V294.5H1783.93V574H1713.43V294.5H1663.43V238.5H1712.93V208.5C1712.93 196.167 1709.6 186.667 1702.93 180C1696.6 173.333 1687.43 170 1675.43 170C1652.1 170 1640.43 182.833 1640.43 208.5V221H1569.43V206C1569.43 174.667 1579.43 151 1599.43 135C1619.43 119 1644.77 111 1675.43 111C1706.43 111 1732.1 119 1752.43 135C1773.1 150.667 1783.43 174.167 1783.43 205.5V238.5ZM2138.06 238.5V294.5H2088.06V574H2017.06V394H1982.06C1959.39 394 1942.06 399.167 1930.06 409.5C1918.39 419.5 1912.56 434.167 1912.56 453.5C1912.56 494.167 1930.06 514.5 1965.06 514.5C1968.73 514.5 1971.56 514.333 1973.56 514V572.5C1965.56 573.167 1958.89 573.5 1953.56 573.5C1918.23 573.5 1890.73 562.5 1871.06 540.5C1851.39 518.167 1841.56 489 1841.56 453C1841.56 417.667 1853.23 389.5 1876.56 368.5C1899.89 347.5 1934.39 337 1980.06 337H2017.06V294.5H1804.06V238.5H2138.06ZM2228.26 238.5H2278.76V294.5H2228.76V574H2158.26V294.5H2108.26V238.5H2157.76V208.5C2157.76 196.167 2154.42 186.667 2147.76 180C2141.42 173.333 2132.26 170 2120.26 170C2096.92 170 2085.26 182.833 2085.26 208.5V221H2014.26V206C2014.26 174.667 2024.26 151 2044.26 135C2064.26 119 2089.59 111 2120.26 111C2151.26 111 2176.92 119 2197.26 135C2217.92 150.667 2228.26 174.167 2228.26 205.5V238.5Z" fill="black"/>
<circle cx="391" cy="391" r="391" fill="url(#paint0_linear_24_2)"/>
<path d="M535.67 297.761L521.182 347.193H245.045L259.534 297.761H535.67ZM406.125 631L250.159 440.091L249.307 404.295H326.864C347.034 404.295 364.222 401.455 378.426 395.773C392.631 389.949 403.497 381.284 411.026 369.778C418.554 358.131 422.318 343.5 422.318 325.886C422.318 299.892 414.506 279.509 398.881 264.736C383.256 249.821 359.25 242.364 326.864 242.364H245.045L259.534 194.636H326.864C361.523 194.636 389.932 200.389 412.091 211.895C434.392 223.259 450.869 238.884 461.523 258.77C472.318 278.514 477.716 300.886 477.716 325.886C477.716 348.472 472.744 369.281 462.801 388.315C453 407.207 437.233 422.406 415.5 433.912C393.909 445.418 365.358 451.17 329.847 451.17H328.568L472.602 627.591V631H406.125ZM535.67 194.636L521.182 244.068L303.852 242.364L318.341 194.636H535.67Z" fill="white"/>
<path d="M280.5 614.207C178.79 685.312 121.397 673.653 18 509.207C110.5 814.707 581.5 927.707 763.5 507.707C552.399 453.373 449.311 473.957 280.5 614.207Z" fill="#E8C300"/>
<defs>
<linearGradient id="paint0_linear_24_2" x1="391" y1="0" x2="391" y2="782" gradientUnits="userSpaceOnUse">
<stop stop-color="#FFBC11"/>
<stop offset="1" stop-color="#765500"/>
</linearGradient>
</defs>
</svg>
